<svg
  width="40"
  height="40"
  viewBox="0 0 40 40"
  fill="none"
  xmlns="http://www.w3.org/2000/svg"
>
  <path
    d="M26.418 6.29753C26.5607 5.83986 26.3584 5.34536 25.936 5.11877C25.5136 4.89217 24.9897 4.99724 24.6874 5.36921L12.224 20.7008C11.9807 21.0002 11.9312 21.4129 12.097 21.7613C12.2628 22.1097 12.6142 22.3316 13 22.3316H17.1256L13.5819 33.7025C13.4393 34.1601 13.6415 34.6546 14.064 34.8812C14.4864 35.1078 15.0102 35.0028 15.3126 34.6308L27.776 19.2988C28.0193 18.9994 28.0688 18.5867 27.903 18.2383C27.7372 17.8899 27.3858 17.668 27 17.668H22.8745L26.418 6.29753Z"
    stroke="white"
    stroke-width="2"
    stroke-linecap="round"
    stroke-linejoin="round"
  />
</svg>
