<svg
  width="88"
  height="88"
  viewBox="0 0 88 88"
  fill="none"
  xmlns="http://www.w3.org/2000/svg"
>
  <path
    d="M44 88C68.3005 88 88 68.3005 88 44C88 19.6995 68.3005 0 44 0C19.6995 0 0 19.6995 0 44C0 68.3005 19.6995 88 44 88Z"
    fill="white"
  />
  <path
    d="M44 85C66.6437 85 85 66.6437 85 44C85 21.3563 66.6437 3 44 3C21.3563 3 3 21.3563 3 44C3 66.6437 21.3563 85 44 85Z"
    fill="white"
    stroke="black"
    stroke-width="2"
  />
  <path
    d="M20.1805 43.946H22.2525V47.922C21.7205 48.3233 21.1045 48.6313 20.4045 48.846C19.7045 49.0607 18.9998 49.168 18.2905 49.168C17.2731 49.168 16.3585 48.9533 15.5465 48.524C14.7345 48.0853 14.0951 47.4833 13.6285 46.718C13.1711 45.9433 12.9425 45.0707 12.9425 44.1C12.9425 43.1293 13.1711 42.2613 13.6285 41.496C14.0951 40.7213 14.7391 40.1193 15.5605 39.69C16.3818 39.2513 17.3058 39.032 18.3325 39.032C19.1911 39.032 19.9705 39.1767 20.6705 39.466C21.3705 39.7553 21.9585 40.1753 22.4345 40.726L20.9785 42.07C20.2785 41.3327 19.4338 40.964 18.4445 40.964C17.8191 40.964 17.2638 41.0947 16.7785 41.356C16.2931 41.6173 15.9151 41.986 15.6445 42.462C15.3738 42.938 15.2385 43.484 15.2385 44.1C15.2385 44.7067 15.3738 45.248 15.6445 45.724C15.9151 46.2 16.2885 46.5733 16.7645 46.844C17.2498 47.1053 17.8005 47.236 18.4165 47.236C19.0698 47.236 19.6578 47.096 20.1805 46.816V43.946ZM30.6033 49L28.7133 46.27H28.6013H26.6273V49H24.3593V39.2H28.6013C29.4693 39.2 30.2206 39.3447 30.8553 39.634C31.4993 39.9233 31.9939 40.334 32.3393 40.866C32.6846 41.398 32.8573 42.028 32.8573 42.756C32.8573 43.484 32.6799 44.114 32.3253 44.646C31.9799 45.1687 31.4853 45.57 30.8413 45.85L33.0393 49H30.6033ZM30.5613 42.756C30.5613 42.2053 30.3839 41.7853 30.0293 41.496C29.6746 41.1973 29.1566 41.048 28.4753 41.048H26.6273V44.464H28.4753C29.1566 44.464 29.6746 44.3147 30.0293 44.016C30.3839 43.7173 30.5613 43.2973 30.5613 42.756ZM41.1082 46.9H36.5582L35.6902 49H33.3662L37.7342 39.2H39.9742L44.3562 49H41.9762L41.1082 46.9ZM40.3942 45.178L38.8402 41.426L37.2862 45.178H40.3942ZM54.2617 39.2L50.0197 49H47.7797L43.5517 39.2H46.0017L48.9837 46.2L52.0077 39.2H54.2617ZM61.2058 46.9H56.6558L55.7878 49H53.4638L57.8318 39.2H60.0718L64.4538 49H62.0738L61.2058 46.9ZM60.4918 45.178L58.9378 41.426L57.3838 45.178H60.4918ZM71.7146 49L69.8246 46.27H69.7126H67.7386V49H65.4706V39.2H69.7126C70.5806 39.2 71.3319 39.3447 71.9666 39.634C72.6106 39.9233 73.1053 40.334 73.4506 40.866C73.7959 41.398 73.9686 42.028 73.9686 42.756C73.9686 43.484 73.7913 44.114 73.4366 44.646C73.0913 45.1687 72.5966 45.57 71.9526 45.85L74.1506 49H71.7146ZM71.6726 42.756C71.6726 42.2053 71.4953 41.7853 71.1406 41.496C70.7859 41.1973 70.2679 41.048 69.5866 41.048H67.7386V44.464H69.5866C70.2679 44.464 70.7859 44.3147 71.1406 44.016C71.4953 43.7173 71.6726 43.2973 71.6726 42.756Z"
    fill="#ED3A3B"
  />
</svg>
