<svg
  width="40"
  height="40"
  viewBox="0 0 40 40"
  fill="none"
  xmlns="http://www.w3.org/2000/svg"
>
  <path
    fill-rule="evenodd"
    clip-rule="evenodd"
    d="M31.6221 4.62309C31.3012 4.62309 31.0187 4.45682 30.8669 4.20918L29.9652 2.73781C28.9175 1.02832 27.0592 0 25.0723 0H19.6275C17.4836 0 15.5026 1.19628 14.5174 3.12536L13.9923 4.15336C13.8512 4.42963 13.5528 4.62309 13.2058 4.62309H10.7361C7.53423 4.62309 5 7.28997 5 10.4185V21.3532C5.65744 20.7939 6.50509 20.4532 7.43056 20.4439V10.4185C7.43056 8.60629 8.9105 7.06874 10.7361 7.06874H13.2058C14.4513 7.06874 15.591 6.37387 16.1542 5.2712L16.6792 4.2432C17.2423 3.14052 18.3821 2.44565 19.6275 2.44565H25.0723C26.2262 2.44565 27.2966 3.04295 27.8963 4.02151L28.7981 5.49288C29.3978 6.47144 30.4682 7.06874 31.6221 7.06874H34.2639C36.0895 7.06874 37.5694 8.60629 37.5694 10.4185V28.0272C37.5694 29.8394 36.0895 31.3043 34.2639 31.3043H13.8404V31.8072C13.8423 31.8566 13.8432 31.9062 13.8432 31.9561C13.8432 32.6037 13.6826 33.2144 13.3993 33.75H34.2639C37.3967 33.75 40 31.2252 40 28.0272V10.4185C40 7.28997 37.4658 4.62309 34.2639 4.62309H31.6221ZM20.8654 27.2379C21.3949 27.3386 21.9413 27.3913 22.5 27.3913C27.3325 27.3913 31.25 23.4495 31.25 18.587C31.25 13.7244 27.3325 9.78261 22.5 9.78261C17.7794 9.78261 13.9319 13.544 13.7563 18.2507C14.4486 17.6794 15.3657 17.3975 16.2668 17.534C16.7654 14.5233 19.3664 12.2283 22.5 12.2283C25.9901 12.2283 28.8194 15.0751 28.8194 18.587C28.8194 22.0988 25.9901 24.9456 22.5 24.9456C22.4766 24.9456 22.4533 24.9455 22.4299 24.9453C22.3048 25.5342 22.0118 26.0951 21.5481 26.5504L20.8654 27.2379Z"
    fill="white"
  />
  <path
    fill-rule="evenodd"
    clip-rule="evenodd"
    d="M3.11811 27.356L0.152038 30.1263C-0.0506792 30.3249 -0.0506792 30.6327 0.152038 30.8313L3.11811 33.6017C3.44885 33.9194 4.025 33.691 4.025 33.2541V31.4668H10.4373C11.0241 31.4668 11.5042 31.02 11.5042 30.4739C11.5042 29.9278 11.0241 29.4809 10.4373 29.4809H4.025V27.7036C4.025 27.2567 3.44885 27.0383 3.11811 27.356ZM18.5993 24.1687L15.6332 21.3983C15.3025 21.0806 14.7263 21.309 14.7263 21.7459V23.5232H8.30339C7.71658 23.5232 7.23646 23.9701 7.23646 24.5162C7.23646 25.0623 7.71658 25.5091 8.30339 25.5091H14.7156V27.2865C14.7156 27.7333 15.2918 27.9518 15.6225 27.634L18.5886 24.8637C18.802 24.6751 18.802 24.3573 18.5993 24.1687Z"
    fill="white"
  />
</svg>
